<!--?xml version="1.0" encoding="utf-8"?-->
<!-- Generator: Adobe Illustrator 18.1.1, SVG Export Plug-In . SVG Version: 6.00 Build 0)  -->

<svg version="1.1" id="_x32_" xmlns="http://www.w3.org/2000/svg" xmlns:xlink="http://www.w3.org/1999/xlink" x="0px" y="0px" viewBox="0 0 512 512" style="width: 256px; height: 256px; opacity: 1;" xml:space="preserve">
<style type="text/css">
	.st0{fill:#4B4B4B;}
</style>
<g>
	<path class="st0" d="M254.431,215.374c34.064,0,61.688-27.613,61.688-61.687c0-34.074-27.623-61.698-61.688-61.698
		c-34.074,0-61.698,27.623-61.698,61.698C192.733,187.761,220.356,215.374,254.431,215.374z" style="fill: rgb(75, 75, 75);"></path>
	<path class="st0" d="M389.53,4.543c-5.399-5.776-14.448-6.084-20.224-0.695c-5.776,5.389-13.618,32.182-13.56,32.24
		c0.048,0.057,27.314-5.94,33.089-11.329C394.611,19.359,394.921,10.319,389.53,4.543z" style="fill: rgb(75, 75, 75);"></path>
	<path class="st0" d="M357.494,89.575c6.684-3.265,9.455-11.329,6.191-18.013c-3.274-6.694-11.339-9.456-18.023-6.191
		c-6.684,3.264-21.123,25.237-21.094,25.305C324.598,90.744,350.811,92.849,357.494,89.575z" style="fill: rgb(75, 75, 75);"></path>
	<path class="st0" d="M327.998,30.543c3.92-8.711,0.038-18.95-8.674-22.871c-8.721-3.92-18.95-0.038-22.871,8.674
		c-3.911,8.711-0.135,42.256-0.048,42.294C296.492,58.678,324.086,39.245,327.998,30.543z" style="fill: rgb(75, 75, 75);"></path>
	<path class="st0" d="M481.111,109.935c-11.3-10.296-28.811-9.484-39.106,1.806l-110.491,95.182
		c-43.404,37.388-107.622,37.388-151.017,0L69.995,111.741c-10.296-11.29-27.806-12.102-39.106-1.806
		c-11.3,10.296-12.112,27.796-1.816,39.096L177.14,314.796v50.774c0,20.756,46.654,36.228,78.866,36.228
		c32.205,0,78.86-15.472,78.86-36.228v-50.774l148.062-165.765C493.222,137.731,492.411,120.23,481.111,109.935z" style="fill: rgb(75, 75, 75);"></path>
	<path class="st0" d="M373.658,335.466v36.431c0,48.06-76.648,67.946-117.691,67.946c-41.048,0-117.696-19.886-117.696-67.946
		v-36.334c-61.615,16.911-102.557,46.774-102.557,80.801c0,52.811,98.602,95.636,220.254,95.636
		c121.747,0,220.348-42.825,220.348-95.636C476.315,382.337,435.369,352.474,373.658,335.466z" style="fill: rgb(75, 75, 75);"></path>
</g>
</svg>
